<mxfile host="app.diagrams.net" modified="2021-08-04T20:24:12.687Z" agent="5.0 (X11; Linux x86_64) AppleWebKit/537.36 (KHTML, like Gecko) Chrome/92.0.4515.115 Safari/537.36" etag="YZXPrMCWjDprORY00kSU" version="14.9.3" type="github">
  <diagram id="-ga6hsOEGiyw53PDkv4c" name="Page-1">
    <mxGraphModel dx="1422" dy="782" grid="1" gridSize="10" guides="1" tooltips="1" connect="1" arrows="1" fold="1" page="1" pageScale="1" pageWidth="827" pageHeight="1169" math="0" shadow="0">
      <root>
        <mxCell id="0" />
        <mxCell id="1" parent="0" />
        <mxCell id="0uKCtbiLuTCNgKzWHR9k-1" value="POST&lt;br&gt;image" style="edgeStyle=orthogonalEdgeStyle;rounded=0;orthogonalLoop=1;jettySize=auto;html=1;" parent="1" source="0uKCtbiLuTCNgKzWHR9k-27" target="0uKCtbiLuTCNgKzWHR9k-5" edge="1">
          <mxGeometry relative="1" as="geometry" />
        </mxCell>
        <mxCell id="0uKCtbiLuTCNgKzWHR9k-2" style="edgeStyle=orthogonalEdgeStyle;rounded=0;orthogonalLoop=1;jettySize=auto;html=1;" parent="1" source="0uKCtbiLuTCNgKzWHR9k-3" target="0uKCtbiLuTCNgKzWHR9k-27" edge="1">
          <mxGeometry relative="1" as="geometry" />
        </mxCell>
        <mxCell id="0uKCtbiLuTCNgKzWHR9k-3" value="Photo" style="html=1;strokeColor=none;fillColor=#0079D6;labelPosition=center;verticalLabelPosition=middle;verticalAlign=top;align=center;fontSize=12;outlineConnect=0;spacingTop=-6;fontColor=#FFFFFF;shape=mxgraph.sitemap.photo;" parent="1" vertex="1">
          <mxGeometry x="40" y="299.8299999999999" width="90" height="60" as="geometry" />
        </mxCell>
        <mxCell id="0uKCtbiLuTCNgKzWHR9k-4" value="send notification&lt;br&gt;&amp;nbsp;to SQS&lt;br&gt;on POST" style="edgeStyle=orthogonalEdgeStyle;rounded=0;orthogonalLoop=1;jettySize=auto;html=1;" parent="1" source="0uKCtbiLuTCNgKzWHR9k-5" edge="1">
          <mxGeometry x="-0.089" y="-10" relative="1" as="geometry">
            <mxPoint x="510" y="328.4000000000001" as="targetPoint" />
            <mxPoint as="offset" />
          </mxGeometry>
        </mxCell>
        <mxCell id="0uKCtbiLuTCNgKzWHR9k-5" value="Amazon S3:&lt;br&gt;bucket raw&lt;br&gt;Store image without transformation" style="outlineConnect=0;fontColor=#232F3E;gradientColor=none;strokeColor=#ffffff;fillColor=#232F3E;dashed=0;verticalLabelPosition=middle;verticalAlign=bottom;align=center;html=1;whiteSpace=wrap;fontSize=10;fontStyle=1;spacing=3;shape=mxgraph.aws4.productIcon;prIcon=mxgraph.aws4.s3;" parent="1" vertex="1">
          <mxGeometry x="337" y="256.8299999999999" width="80" height="146" as="geometry" />
        </mxCell>
        <mxCell id="0uKCtbiLuTCNgKzWHR9k-6" style="edgeStyle=orthogonalEdgeStyle;rounded=0;orthogonalLoop=1;jettySize=auto;html=1;" parent="1" source="0uKCtbiLuTCNgKzWHR9k-8" target="0uKCtbiLuTCNgKzWHR9k-33" edge="1">
          <mxGeometry relative="1" as="geometry" />
        </mxCell>
        <mxCell id="0uKCtbiLuTCNgKzWHR9k-7" value="EC2 get image&lt;br&gt;from S3" style="edgeLabel;html=1;align=center;verticalAlign=middle;resizable=0;points=[];" parent="0uKCtbiLuTCNgKzWHR9k-6" vertex="1" connectable="0">
          <mxGeometry x="0.4218" relative="1" as="geometry">
            <mxPoint as="offset" />
          </mxGeometry>
        </mxCell>
        <mxCell id="0uKCtbiLuTCNgKzWHR9k-8" value="Amazon S3:&lt;br&gt;Folder clean" style="outlineConnect=0;fontColor=#232F3E;gradientColor=none;strokeColor=#ffffff;fillColor=#232F3E;dashed=0;verticalLabelPosition=middle;verticalAlign=bottom;align=center;html=1;whiteSpace=wrap;fontSize=10;fontStyle=1;spacing=3;shape=mxgraph.aws4.productIcon;prIcon=mxgraph.aws4.s3;" parent="1" vertex="1">
          <mxGeometry x="1000" y="272.8299999999999" width="80" height="120" as="geometry" />
        </mxCell>
        <mxCell id="0uKCtbiLuTCNgKzWHR9k-9" style="edgeStyle=orthogonalEdgeStyle;rounded=0;orthogonalLoop=1;jettySize=auto;html=1;" parent="1" source="0uKCtbiLuTCNgKzWHR9k-33" target="0uKCtbiLuTCNgKzWHR9k-12" edge="1">
          <mxGeometry relative="1" as="geometry" />
        </mxCell>
        <mxCell id="0uKCtbiLuTCNgKzWHR9k-10" value="update" style="edgeLabel;html=1;align=center;verticalAlign=middle;resizable=0;points=[];" parent="0uKCtbiLuTCNgKzWHR9k-9" vertex="1" connectable="0">
          <mxGeometry x="0.5282" y="2" relative="1" as="geometry">
            <mxPoint as="offset" />
          </mxGeometry>
        </mxCell>
        <mxCell id="0uKCtbiLuTCNgKzWHR9k-12" value="Amazon DynamoDB" style="outlineConnect=0;fontColor=#232F3E;gradientColor=none;strokeColor=#ffffff;fillColor=#232F3E;dashed=0;verticalLabelPosition=middle;verticalAlign=bottom;align=center;html=1;whiteSpace=wrap;fontSize=10;fontStyle=1;spacing=3;shape=mxgraph.aws4.productIcon;prIcon=mxgraph.aws4.dynamodb;" parent="1" vertex="1">
          <mxGeometry x="750" y="554.4399999999999" width="80" height="110" as="geometry" />
        </mxCell>
        <mxCell id="0uKCtbiLuTCNgKzWHR9k-13" value="h" style="edgeStyle=orthogonalEdgeStyle;rounded=0;orthogonalLoop=1;jettySize=auto;html=1;entryX=1;entryY=0.5;entryDx=0;entryDy=0;" parent="1" source="0uKCtbiLuTCNgKzWHR9k-15" target="0uKCtbiLuTCNgKzWHR9k-47" edge="1">
          <mxGeometry relative="1" as="geometry">
            <mxPoint x="880" y="950.8299999999999" as="targetPoint" />
          </mxGeometry>
        </mxCell>
        <mxCell id="0uKCtbiLuTCNgKzWHR9k-14" value="download image&lt;br&gt;and json for via" style="edgeLabel;html=1;align=center;verticalAlign=middle;resizable=0;points=[];" parent="0uKCtbiLuTCNgKzWHR9k-13" vertex="1" connectable="0">
          <mxGeometry x="0.1564" relative="1" as="geometry">
            <mxPoint x="-1" as="offset" />
          </mxGeometry>
        </mxCell>
        <mxCell id="0uKCtbiLuTCNgKzWHR9k-15" value="Amazon S3:&lt;br&gt;&lt;br&gt;annotation/json" style="outlineConnect=0;fontColor=#232F3E;gradientColor=none;strokeColor=#ffffff;fillColor=#232F3E;dashed=0;verticalLabelPosition=middle;verticalAlign=bottom;align=center;html=1;whiteSpace=wrap;fontSize=10;fontStyle=1;spacing=3;shape=mxgraph.aws4.productIcon;prIcon=mxgraph.aws4.s3;" parent="1" vertex="1">
          <mxGeometry x="1000" y="862.8299999999999" width="80" height="120" as="geometry" />
        </mxCell>
        <mxCell id="0uKCtbiLuTCNgKzWHR9k-16" style="edgeStyle=orthogonalEdgeStyle;rounded=0;orthogonalLoop=1;jettySize=auto;html=1;" parent="1" source="0uKCtbiLuTCNgKzWHR9k-20" target="0uKCtbiLuTCNgKzWHR9k-30" edge="1">
          <mxGeometry relative="1" as="geometry" />
        </mxCell>
        <mxCell id="0uKCtbiLuTCNgKzWHR9k-17" value="&lt;span style=&quot;font-size: 12px ; background-color: rgb(248 , 249 , 250)&quot;&gt;trigger: S3&lt;/span&gt;&lt;br style=&quot;font-size: 12px ; background-color: rgb(248 , 249 , 250)&quot;&gt;&lt;span style=&quot;font-size: 12px ; background-color: rgb(248 , 249 , 250)&quot;&gt;csv POST&lt;/span&gt;" style="edgeLabel;html=1;align=center;verticalAlign=middle;resizable=0;points=[];" parent="0uKCtbiLuTCNgKzWHR9k-16" vertex="1" connectable="0">
          <mxGeometry x="0.1871" y="2" relative="1" as="geometry">
            <mxPoint as="offset" />
          </mxGeometry>
        </mxCell>
        <mxCell id="0uKCtbiLuTCNgKzWHR9k-18" style="edgeStyle=orthogonalEdgeStyle;shape=flexArrow;rounded=0;orthogonalLoop=1;jettySize=auto;html=1;" parent="1" source="0uKCtbiLuTCNgKzWHR9k-47" target="0uKCtbiLuTCNgKzWHR9k-20" edge="1">
          <mxGeometry relative="1" as="geometry">
            <mxPoint x="540" y="1020.8299999999999" as="sourcePoint" />
          </mxGeometry>
        </mxCell>
        <mxCell id="0uKCtbiLuTCNgKzWHR9k-19" value="csv upload by actor&lt;br&gt;when finished" style="edgeLabel;html=1;align=center;verticalAlign=middle;resizable=0;points=[];" parent="0uKCtbiLuTCNgKzWHR9k-18" vertex="1" connectable="0">
          <mxGeometry x="0.3221" y="5" relative="1" as="geometry">
            <mxPoint as="offset" />
          </mxGeometry>
        </mxCell>
        <mxCell id="0uKCtbiLuTCNgKzWHR9k-20" value="Amazon S3:&lt;br&gt;Folder&amp;nbsp;annotation/json" style="outlineConnect=0;fontColor=#232F3E;gradientColor=none;strokeColor=#ffffff;fillColor=#232F3E;dashed=0;verticalLabelPosition=middle;verticalAlign=bottom;align=center;html=1;whiteSpace=wrap;fontSize=10;fontStyle=1;spacing=3;shape=mxgraph.aws4.productIcon;prIcon=mxgraph.aws4.s3;" parent="1" vertex="1">
          <mxGeometry x="299" y="865.8299999999999" width="80" height="120" as="geometry" />
        </mxCell>
        <mxCell id="0uKCtbiLuTCNgKzWHR9k-21" style="edgeStyle=orthogonalEdgeStyle;shape=flexArrow;rounded=0;orthogonalLoop=1;jettySize=auto;html=1;" parent="1" source="0uKCtbiLuTCNgKzWHR9k-22" edge="1">
          <mxGeometry relative="1" as="geometry">
            <mxPoint x="880" y="1012.8299999999999" as="targetPoint" />
          </mxGeometry>
        </mxCell>
        <mxCell id="0uKCtbiLuTCNgKzWHR9k-22" value="Actor&lt;br&gt;manualy anotate&lt;br&gt;with VIA&amp;nbsp;" style="shape=umlActor;verticalLabelPosition=bottom;verticalAlign=top;html=1;outlineConnect=0;" parent="1" vertex="1">
          <mxGeometry x="950" y="982.8299999999999" width="30" height="60" as="geometry" />
        </mxCell>
        <mxCell id="0uKCtbiLuTCNgKzWHR9k-23" style="edgeStyle=orthogonalEdgeStyle;rounded=0;orthogonalLoop=1;jettySize=auto;html=1;" parent="1" target="0uKCtbiLuTCNgKzWHR9k-36" edge="1">
          <mxGeometry relative="1" as="geometry">
            <mxPoint x="590" y="328.4000000000001" as="sourcePoint" />
          </mxGeometry>
        </mxCell>
        <mxCell id="0uKCtbiLuTCNgKzWHR9k-24" value="lambda triggers&lt;br&gt;by SQS&amp;nbsp;" style="edgeLabel;html=1;align=center;verticalAlign=middle;resizable=0;points=[];" parent="0uKCtbiLuTCNgKzWHR9k-23" vertex="1" connectable="0">
          <mxGeometry x="-0.2647" y="1" relative="1" as="geometry">
            <mxPoint as="offset" />
          </mxGeometry>
        </mxCell>
        <mxCell id="0uKCtbiLuTCNgKzWHR9k-26" value="" style="group" parent="1" vertex="1" connectable="0">
          <mxGeometry x="170" y="270.8299999999999" width="68" height="93" as="geometry" />
        </mxCell>
        <mxCell id="0uKCtbiLuTCNgKzWHR9k-27" value="Local:&lt;br&gt;Upload image to S3&lt;br&gt;image name:&lt;br&gt;userName_number&lt;br&gt;(number auto incremented)" style="shape=image;html=1;verticalAlign=top;verticalLabelPosition=bottom;labelBackgroundColor=#ffffff;imageAspect=0;aspect=fixed;image=https://cdn4.iconfinder.com/data/icons/logos-and-brands/512/267_Python_logo-128.png" parent="0uKCtbiLuTCNgKzWHR9k-26" vertex="1">
          <mxGeometry y="25" width="68" height="68" as="geometry" />
        </mxCell>
        <mxCell id="0uKCtbiLuTCNgKzWHR9k-28" value="A" style="text;html=1;strokeColor=none;fillColor=none;align=center;verticalAlign=middle;whiteSpace=wrap;rounded=0;" parent="0uKCtbiLuTCNgKzWHR9k-26" vertex="1">
          <mxGeometry x="14" width="40" height="20" as="geometry" />
        </mxCell>
        <mxCell id="0uKCtbiLuTCNgKzWHR9k-29" value="" style="group" parent="1" vertex="1" connectable="0">
          <mxGeometry x="275" y="494.93999999999994" width="130" height="205" as="geometry" />
        </mxCell>
        <mxCell id="0uKCtbiLuTCNgKzWHR9k-30" value="&lt;span&gt;AWS Lambda:&lt;br&gt;&lt;/span&gt;update db with csv content" style="outlineConnect=0;fontColor=#232F3E;gradientColor=none;strokeColor=#ffffff;fillColor=#232F3E;dashed=0;verticalLabelPosition=middle;verticalAlign=bottom;align=center;html=1;whiteSpace=wrap;fontSize=10;fontStyle=1;spacing=3;shape=mxgraph.aws4.productIcon;prIcon=mxgraph.aws4.lambda;" parent="0uKCtbiLuTCNgKzWHR9k-29" vertex="1">
          <mxGeometry y="25" width="130" height="180" as="geometry" />
        </mxCell>
        <mxCell id="0uKCtbiLuTCNgKzWHR9k-31" value="E" style="text;html=1;strokeColor=none;fillColor=none;align=center;verticalAlign=middle;whiteSpace=wrap;rounded=0;" parent="0uKCtbiLuTCNgKzWHR9k-29" vertex="1">
          <mxGeometry x="28" width="40" height="20" as="geometry" />
        </mxCell>
        <mxCell id="0uKCtbiLuTCNgKzWHR9k-32" value="" style="group" parent="1" vertex="1" connectable="0">
          <mxGeometry x="974" y="446.8299999999999" width="145" height="284" as="geometry" />
        </mxCell>
        <mxCell id="0uKCtbiLuTCNgKzWHR9k-33" value="Amazon EC2:&lt;br&gt;- call api gcloud vision&lt;br&gt;- create via json (batch of 100 image)&lt;br&gt;- update db: with name of the anotation responsible&lt;br&gt;- update json to s3:&lt;br&gt;via_username_number.json&amp;nbsp;" style="outlineConnect=0;fontColor=#232F3E;gradientColor=none;strokeColor=#ffffff;fillColor=#232F3E;dashed=0;verticalLabelPosition=middle;verticalAlign=bottom;align=center;html=1;whiteSpace=wrap;fontSize=10;fontStyle=1;spacing=3;shape=mxgraph.aws4.productIcon;prIcon=mxgraph.aws4.ec2;" parent="0uKCtbiLuTCNgKzWHR9k-32" vertex="1">
          <mxGeometry y="43" width="130" height="241" as="geometry" />
        </mxCell>
        <mxCell id="0uKCtbiLuTCNgKzWHR9k-34" value="C" style="text;html=1;strokeColor=none;fillColor=none;align=center;verticalAlign=middle;whiteSpace=wrap;rounded=0;" parent="0uKCtbiLuTCNgKzWHR9k-32" vertex="1">
          <mxGeometry x="105" width="40" height="20" as="geometry" />
        </mxCell>
        <mxCell id="0uKCtbiLuTCNgKzWHR9k-35" value="" style="group" parent="1" vertex="1" connectable="0">
          <mxGeometry x="740" y="40" width="130" height="362.83000000000004" as="geometry" />
        </mxCell>
        <mxCell id="0uKCtbiLuTCNgKzWHR9k-36" value="AWS Lambda:&lt;br&gt;&lt;div style=&quot;text-align: left&quot;&gt;&lt;span&gt;1) Image standardisation:&lt;/span&gt;&lt;/div&gt;&lt;blockquote style=&quot;margin: 0 0 0 40px ; border: none ; padding: 0px&quot;&gt;&lt;div style=&quot;text-align: left&quot;&gt;&lt;div&gt;- size&lt;/div&gt;&lt;/div&gt;&lt;div style=&quot;text-align: left&quot;&gt;&lt;div&gt;- format&lt;/div&gt;&lt;/div&gt;&lt;div style=&quot;text-align: left&quot;&gt;&lt;div&gt;- ratio&lt;/div&gt;&lt;div&gt;-orientation&lt;/div&gt;&lt;div&gt;- ?&lt;/div&gt;&lt;/div&gt;&lt;/blockquote&gt;&lt;div style=&quot;text-align: left&quot;&gt;&lt;span&gt;2) clean image metadata&lt;/span&gt;&lt;/div&gt;&lt;div style=&quot;text-align: left&quot;&gt;&lt;span&gt;3) Rename with unique id&lt;/span&gt;&lt;/div&gt;&lt;div style=&quot;text-align: left&quot;&gt;&lt;span&gt;autocremented&lt;/span&gt;&lt;/div&gt;&lt;div style=&quot;text-align: left&quot;&gt;&lt;span&gt;4) update database: image name, row name, uploader name&lt;/span&gt;&lt;/div&gt;&lt;div style=&quot;text-align: left&quot;&gt;&lt;span&gt;5) upload in bucket 2&lt;/span&gt;&lt;/div&gt;&lt;div style=&quot;text-align: left&quot;&gt;&lt;span&gt;&lt;br&gt;&lt;/span&gt;&lt;/div&gt;" style="outlineConnect=0;fontColor=#232F3E;gradientColor=none;strokeColor=#ffffff;fillColor=#232F3E;dashed=0;verticalLabelPosition=middle;verticalAlign=bottom;align=center;html=1;whiteSpace=wrap;fontSize=10;fontStyle=1;spacing=3;shape=mxgraph.aws4.productIcon;prIcon=mxgraph.aws4.lambda;" parent="0uKCtbiLuTCNgKzWHR9k-35" vertex="1">
          <mxGeometry x="-16" y="125.22" width="130" height="335.22" as="geometry" />
        </mxCell>
        <mxCell id="0uKCtbiLuTCNgKzWHR9k-37" value="B" style="text;html=1;strokeColor=none;fillColor=none;align=center;verticalAlign=middle;whiteSpace=wrap;rounded=0;" parent="0uKCtbiLuTCNgKzWHR9k-35" vertex="1">
          <mxGeometry x="29" y="90.83" width="40" height="20" as="geometry" />
        </mxCell>
        <mxCell id="0uKCtbiLuTCNgKzWHR9k-38" style="edgeStyle=orthogonalEdgeStyle;rounded=0;orthogonalLoop=1;jettySize=auto;html=1;" parent="1" source="0uKCtbiLuTCNgKzWHR9k-36" target="0uKCtbiLuTCNgKzWHR9k-8" edge="1">
          <mxGeometry relative="1" as="geometry" />
        </mxCell>
        <mxCell id="0uKCtbiLuTCNgKzWHR9k-39" value="upload" style="edgeLabel;html=1;align=center;verticalAlign=middle;resizable=0;points=[];" parent="0uKCtbiLuTCNgKzWHR9k-38" vertex="1" connectable="0">
          <mxGeometry x="0.2192" relative="1" as="geometry">
            <mxPoint as="offset" />
          </mxGeometry>
        </mxCell>
        <mxCell id="0uKCtbiLuTCNgKzWHR9k-40" value="&lt;br&gt;&amp;nbsp;update&lt;br&gt;" style="edgeStyle=orthogonalEdgeStyle;rounded=0;orthogonalLoop=1;jettySize=auto;html=1;" parent="1" source="0uKCtbiLuTCNgKzWHR9k-36" target="0uKCtbiLuTCNgKzWHR9k-12" edge="1">
          <mxGeometry relative="1" as="geometry" />
        </mxCell>
        <mxCell id="0uKCtbiLuTCNgKzWHR9k-41" value="start EC2" style="edgeStyle=orthogonalEdgeStyle;shape=flexArrow;rounded=0;orthogonalLoop=1;jettySize=auto;html=1;entryX=0.969;entryY=0.295;entryDx=0;entryDy=0;entryPerimeter=0;" parent="1" source="0uKCtbiLuTCNgKzWHR9k-42" target="0uKCtbiLuTCNgKzWHR9k-33" edge="1">
          <mxGeometry relative="1" as="geometry" />
        </mxCell>
        <mxCell id="0uKCtbiLuTCNgKzWHR9k-42" value="Actor" style="shape=umlActor;verticalLabelPosition=bottom;verticalAlign=top;html=1;outlineConnect=0;" parent="1" vertex="1">
          <mxGeometry x="1240" y="530.8299999999999" width="30" height="60" as="geometry" />
        </mxCell>
        <mxCell id="0uKCtbiLuTCNgKzWHR9k-43" value="upload" style="edgeStyle=orthogonalEdgeStyle;rounded=0;orthogonalLoop=1;jettySize=auto;html=1;" parent="1" source="0uKCtbiLuTCNgKzWHR9k-33" target="0uKCtbiLuTCNgKzWHR9k-15" edge="1">
          <mxGeometry relative="1" as="geometry" />
        </mxCell>
        <mxCell id="0uKCtbiLuTCNgKzWHR9k-44" style="edgeStyle=orthogonalEdgeStyle;rounded=0;orthogonalLoop=1;jettySize=auto;html=1;" parent="1" source="0uKCtbiLuTCNgKzWHR9k-30" target="0uKCtbiLuTCNgKzWHR9k-12" edge="1">
          <mxGeometry relative="1" as="geometry" />
        </mxCell>
        <mxCell id="0uKCtbiLuTCNgKzWHR9k-45" value="update" style="edgeLabel;html=1;align=center;verticalAlign=middle;resizable=0;points=[];" parent="0uKCtbiLuTCNgKzWHR9k-44" vertex="1" connectable="0">
          <mxGeometry x="-0.181" relative="1" as="geometry">
            <mxPoint as="offset" />
          </mxGeometry>
        </mxCell>
        <mxCell id="0uKCtbiLuTCNgKzWHR9k-46" value="" style="group" parent="1" vertex="1" connectable="0">
          <mxGeometry x="703" y="800.8299999999999" width="170" height="250" as="geometry" />
        </mxCell>
        <mxCell id="0uKCtbiLuTCNgKzWHR9k-47" value="" style="whiteSpace=wrap;html=1;container=1;" parent="0uKCtbiLuTCNgKzWHR9k-46" vertex="1">
          <mxGeometry width="170" height="250" as="geometry">
            <mxRectangle width="50" height="40" as="alternateBounds" />
          </mxGeometry>
        </mxCell>
        <mxCell id="0uKCtbiLuTCNgKzWHR9k-48" value="" style="group" parent="0uKCtbiLuTCNgKzWHR9k-46" vertex="1" connectable="0">
          <mxGeometry x="50" width="120" height="250" as="geometry" />
        </mxCell>
        <mxCell id="0uKCtbiLuTCNgKzWHR9k-49" value="Local:&lt;br&gt;- download json with the right &lt;br&gt;annotator name &lt;br&gt;and not sore localy&lt;br&gt;- extract image key from json&lt;br&gt;- download image" style="shape=image;html=1;verticalAlign=top;verticalLabelPosition=bottom;labelBackgroundColor=#ffffff;imageAspect=0;aspect=fixed;image=https://cdn4.iconfinder.com/data/icons/logos-and-brands/512/267_Python_logo-128.png" parent="0uKCtbiLuTCNgKzWHR9k-48" vertex="1">
          <mxGeometry y="15" width="68" height="68" as="geometry" />
        </mxCell>
        <mxCell id="0uKCtbiLuTCNgKzWHR9k-50" value="VIA" style="points=[];aspect=fixed;html=1;align=center;shadow=0;dashed=0;image;image=img/lib/allied_telesis/computer_and_terminals/Personal_Computer.svg;" parent="0uKCtbiLuTCNgKzWHR9k-48" vertex="1">
          <mxGeometry x="11.199999999999989" y="179.17000000000002" width="45.6" height="61.800000000000004" as="geometry" />
        </mxCell>
        <mxCell id="0uKCtbiLuTCNgKzWHR9k-51" value="D" style="text;html=1;strokeColor=none;fillColor=none;align=center;verticalAlign=middle;whiteSpace=wrap;rounded=0;" parent="1" vertex="1">
          <mxGeometry x="768" y="1070.83" width="40" height="20" as="geometry" />
        </mxCell>
        <mxCell id="0uKCtbiLuTCNgKzWHR9k-52" value="Amazon SQS" style="outlineConnect=0;fontColor=#232F3E;gradientColor=none;strokeColor=#ffffff;fillColor=#232F3E;dashed=0;verticalLabelPosition=middle;verticalAlign=bottom;align=center;html=1;whiteSpace=wrap;fontSize=10;fontStyle=1;spacing=3;shape=mxgraph.aws4.productIcon;prIcon=mxgraph.aws4.sqs;" parent="1" vertex="1">
          <mxGeometry x="510" y="279.83" width="80" height="100" as="geometry" />
        </mxCell>
        <mxCell id="OJoio6pD2PtJ5NFqTnMK-3" value="" style="endArrow=classic;html=1;" edge="1" parent="1">
          <mxGeometry width="50" height="50" relative="1" as="geometry">
            <mxPoint x="830" y="580.83" as="sourcePoint" />
            <mxPoint x="970" y="581" as="targetPoint" />
          </mxGeometry>
        </mxCell>
        <mxCell id="OJoio6pD2PtJ5NFqTnMK-4" value="get image key&amp;nbsp;&lt;br&gt;without annotator" style="edgeLabel;html=1;align=center;verticalAlign=middle;resizable=0;points=[];" vertex="1" connectable="0" parent="OJoio6pD2PtJ5NFqTnMK-3">
          <mxGeometry x="0.1571" y="1" relative="1" as="geometry">
            <mxPoint as="offset" />
          </mxGeometry>
        </mxCell>
      </root>
    </mxGraphModel>
  </diagram>
</mxfile>
